<?xml version="1.0" encoding="iso-8859-1"?>
<!-- Generator: Adobe Illustrator 19.0.0, SVG Export Plug-In . SVG Version: 6.00 Build 0)  -->
<svg version="1.1" id="Capa_1" xmlns="http://www.w3.org/2000/svg" xmlns:xlink="http://www.w3.org/1999/xlink" x="0px" y="0px"
	 viewBox="0 0 512 512" style="enable-background:new 0 0 512 512;" xml:space="preserve">
<polygon style="fill:#D6E6FD;" points="384.429,0 192.215,0 172.199,256.082 192.215,512 384.429,512 "/>
<rect style="fill:#F4F4FF;" width="192.22" height="512"/>
<g>
	<rect x="47.839" y="433.21" style="fill:#A1B8D8;" width="77.53" height="30"/>
	<rect x="47.839" y="369.43" style="fill:#A1B8D8;" width="109.42" height="30"/>
</g>
<g>
	<polygon style="fill:#6C819F;" points="257.529,48.785 192.215,48.785 182.207,63.785 192.215,78.785 257.529,78.785 	"/>
	<polygon style="fill:#6C819F;" points="336.59,112.571 192.215,112.571 182.207,127.571 192.215,142.571 336.59,142.571 	"/>
	<polygon style="fill:#6C819F;" points="336.59,176.356 192.215,176.356 182.207,191.356 192.215,206.356 336.59,206.356 	"/>
	<polygon style="fill:#6C819F;" points="336.59,240.142 192.215,240.142 182.207,255.142 192.215,270.142 336.59,270.142 	"/>
</g>
<g>
	<rect x="47.839" y="176.36" style="fill:#A1B8D8;" width="144.38" height="30"/>
	<rect x="47.839" y="240.14" style="fill:#A1B8D8;" width="144.38" height="30"/>
	<rect x="126.9" y="48.785" style="fill:#A1B8D8;" width="65.31" height="30"/>
	<rect x="47.839" y="112.57" style="fill:#A1B8D8;" width="144.38" height="30"/>
</g>
<polygon style="fill:#467BCA;" points="271.539,448.361 316.561,448.245 512,252.806 489.547,230.353 380.485,316.5 "/>
<polygon style="fill:#68B7EA;" points="466.863,207.668 271.423,403.107 271.539,448.361 489.547,230.353 "/>
<g>
</g>
<g>
</g>
<g>
</g>
<g>
</g>
<g>
</g>
<g>
</g>
<g>
</g>
<g>
</g>
<g>
</g>
<g>
</g>
<g>
</g>
<g>
</g>
<g>
</g>
<g>
</g>
<g>
</g>
</svg>
