<?xml version="1.0" encoding="iso-8859-1"?>
<!-- Generator: Adobe Illustrator 19.0.0, SVG Export Plug-In . SVG Version: 6.00 Build 0)  -->
<svg version="1.1" id="Capa_1" xmlns="http://www.w3.org/2000/svg" xmlns:xlink="http://www.w3.org/1999/xlink" x="0px" y="0px"
	 viewBox="0 0 512 512" style="enable-background:new 0 0 512 512;" xml:space="preserve">
<polygon style="fill:#CCCCCC;" points="0,21.694 0,410.78 210.107,410.78 301.893,410.78 512,410.78 512,21.694 "/>
<polygon style="fill:#B3B3B3;" points="256,21.694 256,410.78 361.054,410.78 406.946,410.78 512,410.78 512,21.694 "/>
<polygon style="fill:#F1F1F2;" points="63.734,85.428 63.734,347.045 189.634,347.045 322.366,347.045 448.266,347.045 
	448.266,85.428 "/>
<polygon style="fill:#E6E6E6;" points="256,85.428 256,347.045 318.95,347.045 385.316,347.045 448.266,347.045 448.266,85.428 "/>
<polygon style="fill:#FF8800;" points="210.107,382.787 210.107,490.306 256,473.466 301.893,490.306 301.893,382.787 "/>
<polygon style="fill:#E47700;" points="256,382.787 256,473.466 301.893,490.306 301.893,382.787 "/>
<circle style="fill:#FFDB0C;" cx="256" cy="335.77" r="67.31"/>
<path style="fill:#FBBF00;" d="M323.312,335.77c0,37.175-30.137,67.312-67.312,67.312c0-60.53,0-101.262,0-134.624
	C293.175,268.458,323.312,298.594,323.312,335.77z"/>
<rect x="111.53" y="134.16" style="fill:#4D4D4D;" width="288.93" height="30"/>
<rect x="256" y="134.16" style="fill:#333333;" width="144.47" height="30"/>
<rect x="181" y="193.81" style="fill:#4D4D4D;" width="150.01" height="30"/>
<rect x="256" y="193.81" style="fill:#333333;" width="75" height="30"/>
<g>
</g>
<g>
</g>
<g>
</g>
<g>
</g>
<g>
</g>
<g>
</g>
<g>
</g>
<g>
</g>
<g>
</g>
<g>
</g>
<g>
</g>
<g>
</g>
<g>
</g>
<g>
</g>
<g>
</g>
</svg>
