<svg id="Capa_1" enable-background="new 41.64 164.945 512 512" height="512" viewBox="41.64 164.945 512 512" width="512" xmlns="http://www.w3.org/2000/svg"><g><g><g><path d="m214.437 308.04h253.283l-269.836-110.189-143.894 352.205 160.447 65.515z" fill="#fff"/></g><g><g><path d="m194.493 607.394 19.944 8.177v-307.531h-19.944z" fill="#d5f6ea"/></g></g><g><path d="m214.437 313.026h330.666v338.643h-330.666z" fill="#fff"/></g><g><path d="m525.058 308.04v318.699h-310.621v19.944h330.565v-338.643z" fill="#d5f6ea"/></g><g><path d="m259.509 358.098h240.421v240.421h-240.421z" fill="#71e4bf"/></g><g><path d="m479.986 358.098v220.578h-220.477v19.943h240.421v-240.521z" fill="#0ea8b2"/></g><g id="XMLID_125_"><path d="m451.368 383.825c11.729 0 21.238 9.509 21.238 21.24 0 11.73-9.509 21.24-21.238 21.24-11.732 0-21.241-9.51-21.241-21.24-.001-11.73 9.508-21.24 21.241-21.24z" fill="#ffc277"/></g></g><g><g><path d="m469.216 300.561-275.421-112.482-83.664 204.821-5.584 13.761 13.861 5.684 5.584-13.86 77.98-190.861 227.656 92.937h-222.67v303.942l-143.195-58.535 33.206-81.371-6.881-2.792 6.881 2.792 4.387-10.67-13.761-5.683-4.387 10.769-38.891 95.131 162.641 66.513v33.505h345.524v-226.261-2.592-12.365h-14.959v12.365 2.592 211.303h-315.607v-12.465-311.22h283.898 31.709v37.594 14.958h14.959v-14.958-52.552z"/><path d="m537.523 383.028h14.959v14.958h-14.959z"/><path d="m95.478 422.823h14.958v14.958h-14.958z" transform="matrix(-.378 .926 -.926 -.378 540.243 497.688)"/><path d="m252.03 606.097h4.787 71.697 12.863 164.935 1.096v-255.478h-255.378zm101.813-14.958 67.509-122.354 17.65 35.6h-31.212v14.957h38.591l35.698 71.897h-128.236zm138.608-225.562v212.699l-70.5-141.799-85.259 154.662h-54.646l67.608-122.653 15.458 30.016 13.262-6.881-28.32-55.044-83.065 151.072v-222.072z"/><path d="m451.368 433.785c15.854 0 28.718-12.864 28.718-28.719s-12.864-28.719-28.718-28.719c-15.856 0-28.72 12.864-28.72 28.719s12.863 28.719 28.72 28.719zm0-42.481c7.577 0 13.761 6.183 13.761 13.761s-6.184 13.761-13.761 13.761c-7.58 0-13.762-6.183-13.762-13.761s6.182-13.761 13.762-13.761z"/></g><g><path d="m357.333 395.294h-13.463v-14.958h13.463zm-28.42 0h-14.957v-14.958h14.957zm-29.916 0h-14.957v-14.958h14.957z" fill="#fff"/></g></g></g></svg>