<svg id="Capa_1" enable-background="new 0 0 512 512" height="512" viewBox="0 0 512 512" width="512" xmlns="http://www.w3.org/2000/svg"><g><path d="m464.199 31.867h-60.002l-168.198 20.001 20.001 460.132h208.199z" fill="#b2705b"/><path d="m107.803 31.867h-60.002v480.133h208.199v-460.132z" fill="#ea9c62"/><path d="m434.199 61.867h-178.199l-20.001 263.931 20.001 156.202h178.199z" fill="#e1ebf0"/><path d="m77.801 61.867h178.199v420.133h-178.199z" fill="#fff5f5"/><path d="m404.197 31.867h-93.011c-11.021-19.045-31.599-31.867-55.186-31.867l-20.001 61.867 20.001 30.002h148.197z" fill="#b4d2d7"/><path d="m200.813 31.867h-93.011v60.002h148.198v-91.869c-23.587 0-44.165 12.822-55.187 31.867z" fill="#e1ebf0"/><path d="m313.005 167.844c-2.333-2.015-23.758-19.687-57.005-19.687l-20.001 73.82 20.001 73.819 5.155-.899c36.066-6.29 62.242-37.428 62.242-74.038v-44.041z" fill="#ffb655"/><path d="m198.995 167.844-10.392 8.974v44.041c0 36.61 26.177 67.747 62.242 74.038l5.154.899v-147.639c-33.246 0-54.67 17.672-57.004 19.687z" fill="#ffde55"/><path d="m256 265.343c21.619-3.771 37.397-22.539 37.397-44.484v-30.31s-14.351-12.393-37.397-12.393l-20.001 43.82z" fill="#00aa95"/><path d="m218.603 220.859c0 21.945 15.778 40.713 37.397 44.484v-87.187c-23.046 0-37.397 12.393-37.397 12.393z" fill="#00dd80"/><path d="m382.666 355.798v-30h-126.666l-10.001 15 10.001 15z" fill="#607882"/><path d="m382.666 419.532v-30h-126.666l-10.001 15 10.001 15z" fill="#607882"/><g fill="#87a0af"><path d="m129.334 325.798h126.666v30h-126.666z"/><path d="m129.334 389.532h126.666v30h-126.666z"/></g></g></svg>