<svg id="Capa_1" enable-background="new 0 0 512 512" height="512" viewBox="0 0 512 512" width="512" xmlns="http://www.w3.org/2000/svg"><g><g><path d="m429.748 148.923h-169.707c-8.926 0-16.163-7.236-16.163-16.163v-109.097c0-8.926 7.236-16.163 16.163-16.163h169.707c8.926 0 16.163 7.236 16.163 16.163v109.097c0 8.927-7.237 16.163-16.163 16.163z" fill="#9dc6fb"/></g><g><path d="m429.748 7.5h-20.203c8.926 0 16.163 7.236 16.163 16.163v109.097c0 8.926-7.236 16.163-16.163 16.163h20.203c8.926 0 16.163-7.236 16.163-16.163v-109.097c0-8.927-7.237-16.163-16.163-16.163z" fill="#80b4fb"/></g><g><path d="m429.748 504.5h-169.707c-8.926 0-16.163-7.236-16.163-16.163v-323.252c0-8.926 7.236-16.163 16.163-16.163h169.707c8.926 0 16.163 7.236 16.163 16.163v323.252c0 8.927-7.237 16.163-16.163 16.163z" fill="#f9f6f9"/></g><g><path d="m429.748 148.923h-20.203c8.926 0 16.163 7.236 16.163 16.163v323.252c0 8.926-7.236 16.163-16.163 16.163h20.203c8.926 0 16.163-7.236 16.163-16.163v-323.253c0-8.926-7.237-16.162-16.163-16.162z" fill="#dfdde2"/></g><g><g><path d="m328.732 504.5h-222.236v-391.943h222.236c11.158 0 20.203 9.045 20.203 20.203v351.537c0 11.158-9.045 20.203-20.203 20.203z" fill="#e28086"/></g><g><path d="m328.732 112.557h-22.224c11.158 0 20.203 9.045 20.203 20.203v351.537c0 11.158-9.045 20.203-20.203 20.203h22.224c11.158 0 20.203-9.045 20.203-20.203v-351.537c0-11.158-9.045-20.203-20.203-20.203z" fill="#dd636e"/></g><g><path d="m106.496 504.5h-30.305c-5.579 0-10.102-4.523-10.102-10.102v-371.74c0-5.579 4.523-10.102 10.102-10.102h30.305z" fill="#5490f9"/></g><g><g><g><circle cx="227.715" cy="241.353" fill="#ffe07d" r="70.711"/></g></g><g><path d="m157.004 350.45h141.423v32.325h-141.423z" fill="#ddeafb"/></g></g></g><g><path d="m413.585 105.057h-30.305c-4.142 0-7.5 3.358-7.5 7.5s3.358 7.5 7.5 7.5h30.305c4.142 0 7.5-3.358 7.5-7.5s-3.357-7.5-7.5-7.5z"/><path d="m328.732 47.325h84.854c4.142 0 7.5-3.358 7.5-7.5s-3.358-7.5-7.5-7.5h-84.854c-4.142 0-7.5 3.358-7.5 7.5s3.358 7.5 7.5 7.5z"/><path d="m276.203 47.325h20.204c4.142 0 7.5-3.358 7.5-7.5s-3.358-7.5-7.5-7.5h-20.204c-4.142 0-7.5 3.358-7.5 7.5s3.358 7.5 7.5 7.5z"/><path d="m374.618 72.15c0-4.142-3.358-7.5-7.5-7.5h-90.915c-4.142 0-7.5 3.358-7.5 7.5s3.358 7.5 7.5 7.5h90.915c4.142 0 7.5-3.358 7.5-7.5z"/><path d="m373.76 181.248v171.728c0 4.142 3.358 7.5 7.5 7.5s7.5-3.358 7.5-7.5v-171.728c0-4.142-3.358-7.5-7.5-7.5s-7.5 3.358-7.5 7.5z"/><path d="m406.085 181.248v290.927c0 4.142 3.358 7.5 7.5 7.5s7.5-3.358 7.5-7.5v-290.927c0-4.142-3.358-7.5-7.5-7.5s-7.5 3.358-7.5 7.5z"/><path d="m453.411 23.663c0-13.048-10.615-23.663-23.663-23.663h-169.707c-13.047 0-23.663 10.615-23.663 23.663v81.395h-160.187c-9.706 0-17.602 7.896-17.602 17.602v74.34c0 4.142 3.358 7.5 7.5 7.5s7.5-3.358 7.5-7.5v-74.341c0-1.435 1.167-2.602 2.602-2.602h22.805v376.943h-22.805c-1.435 0-2.602-1.167-2.602-2.602v-262.39c0-4.142-3.358-7.5-7.5-7.5s-7.5 3.358-7.5 7.5v262.39c0 9.706 7.896 17.602 17.602 17.602h353.557c13.048 0 23.663-10.615 23.663-23.663v-262.766c0-4.142-3.358-7.5-7.5-7.5s-7.5 3.358-7.5 7.5v262.766c0 4.776-3.886 8.663-8.663 8.663h-76.41c1.974-3.808 3.097-8.126 3.097-12.703v-45.333c0-4.142-3.358-7.5-7.5-7.5s-7.5 3.358-7.5 7.5v45.333c0 7.004-5.699 12.703-12.703 12.703h-214.736v-376.943h214.736c7.004 0 12.703 5.699 12.703 12.703v271.168c0 4.142 3.358 7.5 7.5 7.5s7.5-3.358 7.5-7.5v-247.505h73.313c4.776 0 8.663 3.886 8.663 8.663v25.45c0 4.142 3.358 7.5 7.5 7.5s7.5-3.358 7.5-7.5v-25.45c0-6.245-2.436-11.929-6.403-16.162 3.967-4.233 6.403-9.917 6.403-16.163zm-124.679 81.394h-77.354v-81.394c0-4.776 3.886-8.663 8.663-8.663h169.708c4.776 0 8.663 3.886 8.663 8.663v109.097c0 4.776-3.886 8.663-8.663 8.663h-73.313v-8.663c-.001-15.275-12.429-27.703-27.704-27.703z"/><path d="m227.715 163.141c-43.126 0-78.211 35.085-78.211 78.211s35.085 78.211 78.211 78.211 78.211-35.085 78.211-78.211-35.085-78.211-78.211-78.211zm62.751 70.712h-20.082c-.861-17.224-4.676-33.286-10.96-45.854-.313-.626-.632-1.239-.955-1.843 17.271 9.66 29.56 27.185 31.997 47.697zm-70.251-53.043v53.042h-20.147c1.441-26.472 10.365-46.16 20.147-53.042zm0 68.043v53.042c-9.783-6.882-18.707-26.57-20.147-53.042zm15 53.042v-53.042h20.148c-1.441 26.472-10.365 46.16-20.148 53.042zm0-68.042v-53.043c9.783 6.882 18.707 26.57 20.148 53.042h-20.148zm-38.226-47.714c-.329.615-.663 1.221-.982 1.859-6.284 12.568-10.099 28.631-10.96 45.854h-20.083c2.439-20.522 14.739-38.055 32.025-47.713zm-32.025 62.714h20.083c.861 17.224 4.676 33.286 10.96 45.854.318.635.648 1.243.975 1.855-17.282-9.658-29.579-27.189-32.018-47.709zm93.504 47.698c.323-.604.643-1.217.956-1.844 6.284-12.568 10.1-28.631 10.96-45.854h20.082c-2.437 20.512-14.726 38.037-31.998 47.698z"/><path d="m305.927 382.775v-32.325c0-4.142-3.358-7.5-7.5-7.5h-141.423c-4.142 0-7.5 3.358-7.5 7.5v32.325c0 4.142 3.358 7.5 7.5 7.5h141.423c4.142 0 7.5-3.358 7.5-7.5zm-15-7.5h-126.423v-17.325h126.423z"/><path d="m295.825 415.101c0-4.142-3.358-7.5-7.5-7.5h-121.22c-4.142 0-7.5 3.358-7.5 7.5s3.358 7.5 7.5 7.5h121.22c4.142 0 7.5-3.358 7.5-7.5z"/><path d="m262.122 438.916c-4.142 0-7.5 3.358-7.5 7.5s3.358 7.5 7.5 7.5h6c4.142 0 7.5-3.358 7.5-7.5s-3.358-7.5-7.5-7.5z"/><path d="m224.587 438.916c-4.142 0-7.5 3.358-7.5 7.5s3.358 7.5 7.5 7.5h6.256c4.142 0 7.5-3.358 7.5-7.5s-3.358-7.5-7.5-7.5z"/><path d="m187.309 438.916c-4.142 0-7.5 3.358-7.5 7.5s3.358 7.5 7.5 7.5h6c4.142 0 7.5-3.358 7.5-7.5s-3.358-7.5-7.5-7.5z"/></g></g></svg>