<svg id="Layer_1" enable-background="new 0 0 512 512" height="512" viewBox="0 0 512 512" width="512" xmlns="http://www.w3.org/2000/svg"><g><g><path d="m354.4 73.767v-49.7c0-9.149-7.417-16.567-16.567-16.567h-298.2c-9.149 0-16.567 7.417-16.567 16.567v364.466c0 9.15 7.417 16.567 16.567 16.567h49.7z" fill="#bec8f7"/><path d="m337.833 7.5h-23c9.149 0 16.567 7.417 16.567 16.567v78.45l23-28.75v-49.7c0-9.15-7.417-16.567-16.567-16.567z" fill="#a2b6f4"/><path d="m420.667 487.933c0 9.149-7.417 16.567-16.567 16.567h-298.2c-9.149 0-16.567-7.417-16.567-16.567v-397.6c0-9.15 7.417-16.567 16.567-16.567h241.638c4.394 0 8.608 1.745 11.714 4.852l56.562 56.561c3.107 3.107 4.852 7.321 4.852 11.715v341.039z" fill="#e9efff"/><path d="m296.7 173.167h-83.4c-4.418 0-8-3.582-8-8v-17.133c0-4.418 3.582-8 8-8h83.4c4.418 0 8 3.582 8 8v17.133c0 4.418-3.582 8-8 8z" fill="#77dfff"/><path d="m415.814 135.18-56.562-56.561c-3.107-3.107-7.321-4.852-11.714-4.852h-23c4.394 0 8.608 1.745 11.714 4.852l56.562 56.561c3.107 3.107 4.852 7.321 4.852 11.715v341.039c0 9.15-7.417 16.567-16.567 16.567h23c9.149 0 16.567-7.417 16.567-16.567v-341.039c.001-4.394-1.745-8.608-4.852-11.715z" fill="#bec8f7"/><path d="m415.814 135.18-56.562-56.561c-1.415-1.415-3.066-2.531-4.853-3.344v48.192c0 9.15 7.417 16.567 16.567 16.567h48.192c-.813-1.787-1.929-3.439-3.344-4.854z" fill="#bec8f7"/><path d="m357.215 76.91c-.094-.068-.185-.142-.28-.207-.391-.267-.793-.518-1.205-.75-.008-.004-.015-.009-.023-.014-.426-.24-.862-.461-1.307-.664 0 0-.001 0-.001-.001v21.492l38.414 38.414c1.415 1.415 2.531 3.066 3.345 4.853h23c-.203-.445-.424-.882-.665-1.309-.003-.006-.007-.012-.011-.018-.233-.413-.484-.816-.753-1.209-.065-.094-.138-.184-.205-.277-.219-.306-.44-.611-.681-.902-.326-.393-.667-.774-1.031-1.138l-56.562-56.561c-.364-.364-.745-.705-1.138-1.031-.288-.239-.591-.46-.897-.678z" fill="#a2b6f4"/><path d="m296.7 140.033h-23c4.418 0 8 3.582 8 8v17.133c0 4.418-3.582 8-8 8h23c4.418 0 8-3.582 8-8v-17.133c0-4.418-3.582-8-8-8z" fill="#69cdff"/><g><path d="m213.3 438.233h265.634c4.418 0 8-3.582 8-8v-116.533c0-4.418-3.582-8-8-8h-265.634c-4.418 0-8 3.582-8 8v116.533c0 4.419 3.582 8 8 8z" fill="#ff6c6c"/><path d="m478.933 305.7h-23c4.418 0 8 3.582 8 8v116.533c0 4.418-3.582 8-8 8h23c4.418 0 8-3.582 8-8v-116.533c0-4.418-3.581-8-8-8z" fill="#f74242"/></g></g><g><path d="m479.934 298.2h-50.767v-76.9c0-4.142-3.358-7.5-7.5-7.5s-7.5 3.358-7.5 7.5v76.9h-199.867c-8.547 0-15.5 6.953-15.5 15.5v116.533c0 8.547 6.953 15.5 15.5 15.5h199.867v42.2c0 4.999-4.067 9.066-9.066 9.066h-298.201c-4.999 0-9.066-4.067-9.066-9.066v-397.6c0-5 4.067-9.067 9.066-9.067h241v42.2c0 13.271 10.796 24.067 24.067 24.067h42.2v43.767c0 4.142 3.358 7.5 7.5 7.5s7.5-3.358 7.5-7.5v-44.405c0-6.428-2.503-12.471-7.049-17.018l-56.562-56.561c-.837-.837-1.725-1.603-2.656-2.299v-46.95c0-13.271-10.796-24.067-24.067-24.067h-298.2c-13.27 0-24.067 10.796-24.067 24.067v18.133c0 4.142 3.358 7.5 7.5 7.5s7.5-3.358 7.5-7.5v-18.133c0-4.999 4.067-9.067 9.067-9.067h298.2c4.999 0 9.067 4.067 9.067 9.067v42.2h-241c-13.27 0-24.066 10.796-24.066 24.067v307.266h-42.2c-5 0-9.067-4.067-9.067-9.067v-316.333c0-4.142-3.358-7.5-7.5-7.5s-7.5 3.358-7.5 7.5v316.333c0 13.271 10.796 24.067 24.067 24.067h42.2v75.333c0 13.271 10.796 24.067 24.066 24.067h298.2c13.27 0 24.066-10.796 24.066-24.066v-42.2h50.767c8.547 0 15.5-6.953 15.5-15.5v-116.534c.001-8.547-6.953-15.5-15.499-15.5zm-76.373-165.667h-31.594c-5 0-9.067-4.067-9.067-9.067v-31.593zm76.873 297.7c0 .276-.224.5-.5.5h-265.634c-.276 0-.5-.224-.5-.5v-116.533c0-.276.224-.5.5-.5h265.634c.276 0 .5.224.5.5z"/><path d="m271.064 331.333h-24.382c-8.703 0-15.783 7.081-15.783 15.783v57.984c0 4.142 3.358 7.5 7.5 7.5s7.5-3.358 7.5-7.5v-25.633h25.633c6.547 0 12.895-2.717 17.415-7.456 4.585-4.806 6.938-11.115 6.625-17.765-.607-12.848-11.372-22.913-24.508-22.913zm7.029 30.324c-1.729 1.812-4.059 2.81-6.562 2.81h-25.633v-17.35c0-.432.352-.783.783-.783h24.382c5.027 0 9.3 3.866 9.524 8.618.119 2.514-.767 4.895-2.494 6.705z"/><path d="m346.081 331.333h-16.567c-8.703 0-15.784 7.081-15.784 15.783v49.7c0 8.703 7.081 15.783 15.784 15.783h16.567c17.836 0 32.349-14.511 32.35-32.348v-16.571c-.001-17.835-14.514-32.347-32.35-32.347zm17.35 48.918c0 9.566-7.784 17.349-17.35 17.349h-16.567c-.432 0-.784-.352-.784-.783v-49.7c0-.432.352-.783.784-.783h16.567c9.566 0 17.35 7.783 17.35 17.348z"/><path d="m454.8 331.333h-42.453c-8.703 0-15.783 7.081-15.783 15.783v57.984c0 4.142 3.358 7.5 7.5 7.5s7.5-3.358 7.5-7.5v-25.633h25.634c4.142 0 7.5-3.358 7.5-7.5s-3.358-7.5-7.5-7.5h-25.634v-17.35c0-.432.352-.783.783-.783h42.453c4.142 0 7.5-3.358 7.5-7.5 0-4.143-3.358-7.501-7.5-7.501z"/><path d="m297.7 180.667c8.547 0 15.5-6.953 15.5-15.5v-17.133c0-8.547-6.953-15.5-15.5-15.5h-83.4c-8.547 0-15.5 6.953-15.5 15.5v17.133c0 8.547 6.953 15.5 15.5 15.5zm-83.9-15.5v-17.133c0-.276.224-.5.5-.5h83.4c.276 0 .5.224.5.5v17.133c0 .276-.224.5-.5.5h-83.4c-.276 0-.5-.225-.5-.5z"/><path d="m371.967 198.8h-231.934c-4.142 0-7.5 3.358-7.5 7.5s3.358 7.5 7.5 7.5h231.934c4.142 0 7.5-3.358 7.5-7.5s-3.358-7.5-7.5-7.5z"/><path d="m371.967 231.933h-231.934c-4.142 0-7.5 3.358-7.5 7.5s3.358 7.5 7.5 7.5h231.934c4.142 0 7.5-3.358 7.5-7.5s-3.358-7.5-7.5-7.5z"/><path d="m371.967 265.067h-231.934c-4.142 0-7.5 3.358-7.5 7.5s3.358 7.5 7.5 7.5h231.934c4.142 0 7.5-3.358 7.5-7.5s-3.358-7.5-7.5-7.5z"/></g></g></svg>