<svg id="Capa_1" enable-background="new 0 0 512.008 512.008" height="512" viewBox="0 0 512.008 512.008" width="512" xmlns="http://www.w3.org/2000/svg"><g><g><g><path d="m512.008 120.004v392h-362v-512h242z" fill="#edf9ff"/></g></g><g><g><path d="m512.008 120.004v392h-181v-512h61z" fill="#c0e1f0"/></g></g><g><path d="m413.219.004h-21.211v120h120v-21.211z" fill="#8fc3d9"/></g><g><path d="m210.008 90.004h152v30h-152z" fill="#c0e1f0"/></g><g><path d="m210.008 150.004h242v30h-242z" fill="#c0e1f0"/></g><g><path d="m240.008 210.004h212v30h-212z" fill="#c0e1f0"/></g><g><path d="m270.008 270.004h182v30h-182z" fill="#c0e1f0"/></g><g><path d="m300.008 330.004h152v30h-152z" fill="#c0e1f0"/></g><g><path d="m331.008 420.004h121v30h-121z" fill="#f03800"/></g><g><g><path d="m38.369 54.116-38.369 23.513 47.025 76.737 33.417-2.885 12.789-7.837 21.272-13.036 9.259-23.266-47.024-76.738z" fill="#2d5177"/></g><g><path d="m123.762 107.342-47.024-76.738-38.369 23.512 54.862 89.528 21.272-13.036z" fill="#32405d"/></g><g><path d="m226.468 361.067-12.789 7.837 31.35 51.159 12.789-7.838 12.79-7.837-31.35-51.159z" fill="#2d5177"/></g><g><path d="m241.038 352.727h15v60h-15z" fill="#32405d" transform="matrix(.853 -.523 .523 .853 -163.35 186.259)"/></g><g><path d="m85.394 130.854-38.369 23.512 94.05 153.476 26.684 1.24 19.522-11.963 20.867-12.788 9.664-23.514-94.05-153.475z" fill="#ff641a"/></g><g><path d="m217.812 260.817-94.05-153.475-38.368 23.512 101.887 166.265 20.867-12.788z" fill="#f03800"/></g><g><path d="m179.443 284.329-38.369 23.512c23.788 39.575 49.27 61.841 88.279 86.642l12.79-7.837 12.79-7.837c-3.577-46.067-13.318-78.392-37.121-117.992z" fill="#ffe6cc"/></g><g><path d="m217.812 260.817-38.369 23.512 62.7 102.317 12.79-7.837c-3.577-46.068-13.318-78.393-37.121-117.992z" fill="#fc9"/></g></g><g fill="#8fc3d9"><path d="m331.008 90.004h31v30h-31z"/><path d="m331.008 150.004h121v30h-121z"/><path d="m331.008 210.004h121v30h-121z"/><path d="m331.008 270.004h121v30h-121z"/><path d="m331.008 330.004h121v30h-121z"/></g></g></svg>